<svg width="44" height="44" viewBox="0 0 44 44" fill="none" xmlns="http://www.w3.org/2000/svg">
<circle cx="22" cy="22" r="22" fill="#FF7D56"/>
<path d="M27.0874 12.49H17.0874C14.326 12.49 12.0874 14.7286 12.0874 17.49V27.49C12.0874 30.2514 14.326 32.49 17.0874 32.49H27.0874C29.8488 32.49 32.0874 30.2514 32.0874 27.49V17.49C32.0874 14.7286 29.8488 12.49 27.0874 12.49Z" stroke="white" stroke-width="2" stroke-linecap="round" stroke-linejoin="round"/>
<path d="M26.0874 21.86C26.2108 22.6923 26.0686 23.5423 25.6811 24.2891C25.2936 25.0359 24.6805 25.6415 23.929 26.0197C23.1775 26.398 22.3258 26.5296 21.4951 26.396C20.6645 26.2623 19.8971 25.8701 19.3022 25.2752C18.7073 24.6803 18.3151 23.9129 18.1814 23.0823C18.0478 22.2516 18.1794 21.3999 18.5577 20.6484C18.9359 19.8969 19.5415 19.2838 20.2883 18.8963C21.0351 18.5088 21.8851 18.3666 22.7174 18.49C23.5663 18.6159 24.3522 19.0115 24.959 19.6184C25.5659 20.2252 25.9615 21.0111 26.0874 21.86Z" stroke="white" stroke-width="2" stroke-linecap="round" stroke-linejoin="round"/>
<path d="M27.5874 16.99H27.5974" stroke="white" stroke-width="2" stroke-linecap="round" stroke-linejoin="round"/>
</svg>
