<svg width="127" height="27" viewBox="0 0 127 27" fill="none" xmlns="http://www.w3.org/2000/svg">
<path d="M16.424 20.636C16.112 20.9 15.704 21.116 15.2 21.284C14.72 21.428 14.156 21.5 13.508 21.5C12.644 21.5 11.924 21.392 11.348 21.176C10.796 20.96 10.436 20.588 10.268 20.06C9.596 17.948 9.044 16.244 8.612 14.948C8.18 13.628 7.844 12.476 7.604 11.492H7.424C7.352 12.908 7.292 14.204 7.244 15.38C7.22 16.532 7.196 17.66 7.172 18.764C7.172 19.868 7.148 20.984 7.1 22.112C7.076 23.24 7.028 24.488 6.956 25.856C6.644 25.976 6.236 26.072 5.732 26.144C5.228 26.24 4.724 26.288 4.22 26.288C3.164 26.288 2.336 26.12 1.736 25.784C1.16 25.448 0.872 24.836 0.872 23.948L1.916 5.588C2.108 5.276 2.528 4.94 3.176 4.58C3.824 4.22 4.736 4.04 5.912 4.04C7.184 4.04 8.18 4.244 8.9 4.652C9.62 5.036 10.148 5.672 10.484 6.56C10.7 7.136 10.928 7.796 11.168 8.54C11.432 9.284 11.684 10.052 11.924 10.844C12.188 11.636 12.44 12.428 12.68 13.22C12.92 13.988 13.136 14.684 13.328 15.308H13.508C14.084 13.292 14.66 11.348 15.236 9.476C15.812 7.58 16.34 5.996 16.82 4.724C17.18 4.532 17.636 4.376 18.188 4.256C18.764 4.112 19.4 4.04 20.096 4.04C21.272 4.04 22.232 4.22 22.976 4.58C23.72 4.916 24.152 5.408 24.272 6.056C24.368 6.536 24.464 7.28 24.56 8.288C24.68 9.272 24.8 10.388 24.92 11.636C25.04 12.884 25.16 14.204 25.28 15.596C25.4 16.988 25.508 18.332 25.604 19.628C25.724 20.9 25.82 22.076 25.892 23.156C25.964 24.212 26.012 25.028 26.036 25.604C25.628 25.844 25.196 26.012 24.74 26.108C24.308 26.228 23.744 26.288 23.048 26.288C22.136 26.288 21.368 26.132 20.744 25.82C20.12 25.508 19.784 24.896 19.736 23.984C19.592 21.368 19.496 19.016 19.448 16.928C19.424 14.84 19.376 13.088 19.304 11.672H19.124C18.884 12.608 18.536 13.784 18.08 15.2C17.624 16.616 17.072 18.428 16.424 20.636ZM37.0475 22.112C37.4555 22.112 37.8995 22.076 38.3795 22.004C38.8835 21.908 39.2555 21.788 39.4955 21.644V18.764L36.9035 18.98C36.2315 19.028 35.6795 19.172 35.2475 19.412C34.8155 19.652 34.5995 20.012 34.5995 20.492C34.5995 20.972 34.7795 21.368 35.1395 21.68C35.5235 21.968 36.1595 22.112 37.0475 22.112ZM36.7595 7.964C38.0555 7.964 39.2315 8.096 40.2875 8.36C41.3675 8.624 42.2795 9.032 43.0235 9.584C43.7915 10.112 44.3795 10.796 44.7875 11.636C45.1955 12.452 45.3995 13.424 45.3995 14.552V22.616C45.3995 23.24 45.2195 23.756 44.8595 24.164C44.5235 24.548 44.1155 24.884 43.6355 25.172C42.0755 26.108 39.8795 26.576 37.0475 26.576C35.7755 26.576 34.6235 26.456 33.5915 26.216C32.5835 25.976 31.7075 25.616 30.9635 25.136C30.2435 24.656 29.6795 24.044 29.2715 23.3C28.8875 22.556 28.6955 21.692 28.6955 20.708C28.6955 19.052 29.1875 17.78 30.1715 16.892C31.1555 16.004 32.6795 15.452 34.7435 15.236L39.4595 14.732V14.48C39.4595 13.784 39.1475 13.292 38.5235 13.004C37.9235 12.692 37.0475 12.536 35.8955 12.536C34.9835 12.536 34.0955 12.632 33.2315 12.824C32.3675 13.016 31.5875 13.256 30.8915 13.544C30.5795 13.328 30.3155 13.004 30.0995 12.572C29.8835 12.116 29.7755 11.648 29.7755 11.168C29.7755 10.544 29.9195 10.052 30.2075 9.692C30.5195 9.308 30.9875 8.984 31.6115 8.72C32.3075 8.456 33.1235 8.264 34.0595 8.144C35.0195 8.024 35.9195 7.964 36.7595 7.964ZM48.9975 3.644C48.9975 2.732 49.2975 1.964 49.8975 1.34C50.5215 0.715999 51.3375 0.403999 52.3455 0.403999C53.3535 0.403999 54.1575 0.715999 54.7575 1.34C55.3815 1.964 55.6935 2.732 55.6935 3.644C55.6935 4.556 55.3815 5.324 54.7575 5.948C54.1575 6.572 53.3535 6.884 52.3455 6.884C51.3375 6.884 50.5215 6.572 49.8975 5.948C49.2975 5.324 48.9975 4.556 48.9975 3.644ZM55.4055 25.964C55.1415 26.012 54.7455 26.072 54.2175 26.144C53.7135 26.24 53.1975 26.288 52.6695 26.288C52.1415 26.288 51.6615 26.252 51.2295 26.18C50.8215 26.108 50.4735 25.964 50.1855 25.748C49.8975 25.532 49.6695 25.244 49.5015 24.884C49.3575 24.5 49.2855 24.008 49.2855 23.408V8.756C49.5495 8.708 49.9335 8.648 50.4375 8.576C50.9655 8.48 51.4935 8.432 52.0215 8.432C52.5495 8.432 53.0175 8.468 53.4255 8.54C53.8575 8.612 54.2175 8.756 54.5055 8.972C54.7935 9.188 55.0095 9.488 55.1535 9.872C55.3215 10.232 55.4055 10.712 55.4055 11.312V25.964ZM70.3897 14.912C70.3897 14.168 70.1737 13.628 69.7417 13.292C69.3337 12.932 68.7697 12.752 68.0497 12.752C67.5697 12.752 67.0897 12.812 66.6097 12.932C66.1537 13.052 65.7577 13.232 65.4217 13.472V25.964C65.1817 26.036 64.7977 26.108 64.2697 26.18C63.7657 26.252 63.2377 26.288 62.6857 26.288C62.1577 26.288 61.6777 26.252 61.2457 26.18C60.8377 26.108 60.4897 25.964 60.2017 25.748C59.9137 25.532 59.6857 25.244 59.5177 24.884C59.3737 24.5 59.3017 24.008 59.3017 23.408V12.608C59.3017 11.96 59.4337 11.432 59.6977 11.024C59.9857 10.616 60.3697 10.244 60.8497 9.908C61.6657 9.332 62.6857 8.864 63.9097 8.504C65.1577 8.144 66.5377 7.964 68.0497 7.964C70.7617 7.964 72.8497 8.564 74.3137 9.764C75.7777 10.94 76.5097 12.584 76.5097 14.696V25.964C76.2697 26.036 75.8857 26.108 75.3577 26.18C74.8537 26.252 74.3257 26.288 73.7737 26.288C73.2457 26.288 72.7657 26.252 72.3337 26.18C71.9257 26.108 71.5777 25.964 71.2897 25.748C71.0017 25.532 70.7737 25.244 70.6057 24.884C70.4617 24.5 70.3897 24.008 70.3897 23.408V14.912ZM87.778 22.112C88.186 22.112 88.63 22.076 89.11 22.004C89.614 21.908 89.986 21.788 90.226 21.644V18.764L87.634 18.98C86.962 19.028 86.41 19.172 85.978 19.412C85.546 19.652 85.33 20.012 85.33 20.492C85.33 20.972 85.51 21.368 85.87 21.68C86.254 21.968 86.89 22.112 87.778 22.112ZM87.49 7.964C88.786 7.964 89.962 8.096 91.018 8.36C92.098 8.624 93.01 9.032 93.754 9.584C94.522 10.112 95.11 10.796 95.518 11.636C95.926 12.452 96.13 13.424 96.13 14.552V22.616C96.13 23.24 95.95 23.756 95.59 24.164C95.254 24.548 94.846 24.884 94.366 25.172C92.806 26.108 90.61 26.576 87.778 26.576C86.506 26.576 85.354 26.456 84.322 26.216C83.314 25.976 82.438 25.616 81.694 25.136C80.974 24.656 80.41 24.044 80.002 23.3C79.618 22.556 79.426 21.692 79.426 20.708C79.426 19.052 79.918 17.78 80.902 16.892C81.886 16.004 83.41 15.452 85.474 15.236L90.19 14.732V14.48C90.19 13.784 89.878 13.292 89.254 13.004C88.654 12.692 87.778 12.536 86.626 12.536C85.714 12.536 84.826 12.632 83.962 12.824C83.098 13.016 82.318 13.256 81.622 13.544C81.31 13.328 81.046 13.004 80.83 12.572C80.614 12.116 80.506 11.648 80.506 11.168C80.506 10.544 80.65 10.052 80.938 9.692C81.25 9.308 81.718 8.984 82.342 8.72C83.038 8.456 83.854 8.264 84.79 8.144C85.75 8.024 86.65 7.964 87.49 7.964ZM110.96 14.912C110.96 14.168 110.744 13.628 110.312 13.292C109.904 12.932 109.34 12.752 108.62 12.752C108.14 12.752 107.66 12.812 107.18 12.932C106.724 13.052 106.328 13.232 105.992 13.472V25.964C105.752 26.036 105.368 26.108 104.84 26.18C104.336 26.252 103.808 26.288 103.256 26.288C102.728 26.288 102.248 26.252 101.816 26.18C101.408 26.108 101.06 25.964 100.772 25.748C100.484 25.532 100.256 25.244 100.088 24.884C99.944 24.5 99.872 24.008 99.872 23.408V12.608C99.872 11.96 100.004 11.432 100.268 11.024C100.556 10.616 100.94 10.244 101.42 9.908C102.236 9.332 103.256 8.864 104.48 8.504C105.728 8.144 107.108 7.964 108.62 7.964C111.332 7.964 113.42 8.564 114.884 9.764C116.348 10.94 117.08 12.584 117.08 14.696V25.964C116.84 26.036 116.456 26.108 115.928 26.18C115.424 26.252 114.896 26.288 114.344 26.288C113.816 26.288 113.336 26.252 112.904 26.18C112.496 26.108 112.148 25.964 111.86 25.748C111.572 25.532 111.344 25.244 111.176 24.884C111.032 24.5 110.96 24.008 110.96 23.408V14.912Z" fill="#25334E"/>
<path d="M119.78 23.084C119.78 22.076 120.092 21.236 120.716 20.564C121.34 19.892 122.192 19.556 123.272 19.556C124.352 19.556 125.204 19.892 125.828 20.564C126.452 21.236 126.764 22.076 126.764 23.084C126.764 24.092 126.452 24.932 125.828 25.604C125.204 26.276 124.352 26.612 123.272 26.612C122.192 26.612 121.34 26.276 120.716 25.604C120.092 24.932 119.78 24.092 119.78 23.084Z" fill="#FF7D56"/>
</svg>
