<svg width="130" height="34" viewBox="0 0 130 34" fill="none" xmlns="http://www.w3.org/2000/svg">
<path d="M56.3769 19.1236C56.1687 19.2949 55.8965 19.435 55.5602 19.544C55.2399 19.6374 54.8636 19.6841 54.4312 19.6841C53.8547 19.6841 53.3743 19.614 52.99 19.4739C52.6217 19.3338 52.3815 19.0925 52.2694 18.75C51.821 17.38 51.4527 16.2747 51.1644 15.4341C50.8762 14.5778 50.652 13.8306 50.4918 13.1923H50.3717C50.3237 14.1108 50.2837 14.9515 50.2516 15.7143C50.2356 16.4615 50.2196 17.1932 50.2036 17.9093C50.2036 18.6255 50.1876 19.3494 50.1556 20.081C50.1395 20.8127 50.1075 21.6223 50.0595 22.5096C49.8513 22.5875 49.5791 22.6497 49.2428 22.6964C48.9065 22.7587 48.5702 22.7898 48.2339 22.7898C47.5293 22.7898 46.9768 22.6809 46.5765 22.4629C46.1922 22.245 46 21.848 46 21.272L46.6966 9.36264C46.8247 9.16026 47.1049 8.94231 47.5373 8.70879C47.9697 8.47528 48.5782 8.35852 49.3629 8.35852C50.2116 8.35852 50.8762 8.49084 51.3566 8.75549C51.837 9.00458 52.1893 9.41712 52.4135 9.99313C52.5576 10.3668 52.7097 10.7949 52.8699 11.2775C53.046 11.7601 53.2142 12.2582 53.3743 12.772C53.5505 13.2857 53.7186 13.7995 53.8787 14.3132C54.0389 14.8114 54.183 15.2628 54.3111 15.6676H54.4312C54.8155 14.3599 55.1999 13.0989 55.5842 11.8846C55.9685 10.6548 56.3208 9.62729 56.6411 8.8022C56.8813 8.67766 57.1856 8.57647 57.5539 8.49863C57.9382 8.40522 58.3626 8.35852 58.827 8.35852C59.6116 8.35852 60.2522 8.47528 60.7486 8.70879C61.245 8.92674 61.5333 9.24588 61.6133 9.66621C61.6774 9.97756 61.7415 10.4602 61.8055 11.114C61.8856 11.7523 61.9657 12.4762 62.0457 13.2857C62.1258 14.0952 62.2059 14.9515 62.2859 15.8544C62.366 16.7573 62.4381 17.6291 62.5021 18.4698C62.5822 19.2949 62.6462 20.0577 62.6943 20.7582C62.7423 21.4432 62.7743 21.9725 62.7904 22.3462C62.5181 22.5018 62.2299 22.6108 61.9256 22.6731C61.6374 22.7509 61.261 22.7898 60.7967 22.7898C60.1881 22.7898 59.6757 22.6886 59.2593 22.4863C58.843 22.2839 58.6188 21.8869 58.5868 21.2953C58.4907 19.5984 58.4266 18.0728 58.3946 16.7184C58.3786 15.364 58.3466 14.2276 58.2985 13.3091H58.1784C58.0183 13.9162 57.7861 14.679 57.4818 15.5975C57.1776 16.516 56.8092 17.6914 56.3769 19.1236Z" fill="#25334E"/>
<path d="M70.1376 20.081C70.4099 20.081 70.7061 20.0577 71.0264 20.011C71.3627 19.9487 71.6109 19.8709 71.771 19.7775V17.9093L70.0416 18.0494C69.5932 18.0806 69.2249 18.174 68.9366 18.3297C68.6484 18.4853 68.5042 18.7189 68.5042 19.0302C68.5042 19.3416 68.6243 19.5984 68.8645 19.8008C69.1208 19.9876 69.5451 20.081 70.1376 20.081ZM69.9455 10.9038C70.8102 10.9038 71.5949 10.9895 72.2995 11.1607C73.0201 11.332 73.6286 11.5966 74.125 11.9547C74.6375 12.2972 75.0298 12.7408 75.302 13.2857C75.5743 13.815 75.7104 14.4455 75.7104 15.1772V20.408C75.7104 20.8127 75.5903 21.1474 75.3501 21.4121C75.1259 21.6612 74.8537 21.8791 74.5334 22.0659C73.4925 22.6731 72.0273 22.9766 70.1376 22.9766C69.2889 22.9766 68.5203 22.8988 67.8317 22.7431C67.1591 22.5875 66.5746 22.3539 66.0782 22.0426C65.5978 21.7312 65.2214 21.3342 64.9492 20.8516C64.693 20.369 64.5649 19.8086 64.5649 19.1703C64.5649 18.0962 64.8932 17.2711 65.5497 16.6951C66.2063 16.119 67.2231 15.761 68.6003 15.6209L71.747 15.294V15.1305C71.747 14.679 71.5388 14.3599 71.1225 14.1731C70.7221 13.9707 70.1376 13.8695 69.369 13.8695C68.7605 13.8695 68.168 13.9318 67.5915 14.0563C67.015 14.1809 66.4945 14.3365 66.0301 14.5234C65.8219 14.3832 65.6458 14.1731 65.5017 13.8929C65.3575 13.5971 65.2855 13.2935 65.2855 12.9821C65.2855 12.5774 65.3816 12.2582 65.5737 12.0247C65.7819 11.7756 66.0942 11.5655 66.5105 11.3942C66.9749 11.223 67.5194 11.0984 68.1439 11.0206C68.7845 10.9428 69.385 10.9038 69.9455 10.9038Z" fill="#25334E"/>
<path d="M78.1111 8.10165C78.1111 7.51007 78.3113 7.0119 78.7117 6.60714C79.128 6.20238 79.6725 6 80.3451 6C81.0176 6 81.5541 6.20238 81.9544 6.60714C82.3708 7.0119 82.579 7.51007 82.579 8.10165C82.579 8.69322 82.3708 9.19139 81.9544 9.59615C81.5541 10.0009 81.0176 10.2033 80.3451 10.2033C79.6725 10.2033 79.128 10.0009 78.7117 9.59615C78.3113 9.19139 78.1111 8.69322 78.1111 8.10165ZM82.3868 22.5797C82.2106 22.6108 81.9464 22.6497 81.5941 22.6964C81.2578 22.7587 80.9135 22.7898 80.5612 22.7898C80.2089 22.7898 79.8887 22.7665 79.6004 22.7198C79.3282 22.6731 79.096 22.5797 78.9038 22.4396C78.7117 22.2995 78.5595 22.1126 78.4474 21.8791C78.3513 21.63 78.3033 21.3109 78.3033 20.9217V11.4176C78.4795 11.3864 78.7357 11.3475 79.072 11.3008C79.4243 11.2386 79.7766 11.2074 80.1289 11.2074C80.4812 11.2074 80.7934 11.2308 81.0657 11.2775C81.3539 11.3242 81.5941 11.4176 81.7863 11.5577C81.9784 11.6978 82.1226 11.8924 82.2187 12.1415C82.3307 12.375 82.3868 12.6864 82.3868 13.0755V22.5797Z" fill="#25334E"/>
<path d="M92.3848 15.4107C92.3848 14.9281 92.2407 14.5778 91.9524 14.3599C91.6802 14.1264 91.3039 14.0096 90.8234 14.0096C90.5032 14.0096 90.1829 14.0485 89.8626 14.1264C89.5584 14.2042 89.2941 14.321 89.0699 14.4766V22.5797C88.9098 22.6264 88.6536 22.6731 88.3013 22.7198C87.965 22.7665 87.6127 22.7898 87.2444 22.7898C86.8921 22.7898 86.5718 22.7665 86.2836 22.7198C86.0113 22.6731 85.7791 22.5797 85.587 22.4396C85.3948 22.2995 85.2427 22.1126 85.1306 21.8791C85.0345 21.63 84.9865 21.3109 84.9865 20.9217V13.9162C84.9865 13.4959 85.0745 13.1534 85.2507 12.8887C85.4428 12.6241 85.6991 12.3828 86.0193 12.1648C86.5638 11.7912 87.2444 11.4876 88.0611 11.2541C88.8938 11.0206 89.8146 10.9038 90.8234 10.9038C92.633 10.9038 94.0262 11.293 95.003 12.0714C95.9799 12.8342 96.4683 13.9006 96.4683 15.2706V22.5797C96.3081 22.6264 96.0519 22.6731 95.6996 22.7198C95.3633 22.7665 95.011 22.7898 94.6427 22.7898C94.2904 22.7898 93.9701 22.7665 93.6819 22.7198C93.4097 22.6731 93.1775 22.5797 92.9853 22.4396C92.7931 22.2995 92.641 22.1126 92.5289 21.8791C92.4328 21.63 92.3848 21.3109 92.3848 20.9217V15.4107Z" fill="#25334E"/>
<path d="M103.987 20.081C104.259 20.081 104.555 20.0577 104.876 20.011C105.212 19.9487 105.46 19.8709 105.62 19.7775V17.9093L103.891 18.0494C103.442 18.0806 103.074 18.174 102.786 18.3297C102.498 18.4853 102.353 18.7189 102.353 19.0302C102.353 19.3416 102.474 19.5984 102.714 19.8008C102.97 19.9876 103.394 20.081 103.987 20.081ZM103.795 10.9038C104.659 10.9038 105.444 10.9895 106.149 11.1607C106.869 11.332 107.478 11.5966 107.974 11.9547C108.487 12.2972 108.879 12.7408 109.151 13.2857C109.424 13.815 109.56 14.4455 109.56 15.1772V20.408C109.56 20.8127 109.44 21.1474 109.199 21.4121C108.975 21.6612 108.703 21.8791 108.383 22.0659C107.342 22.6731 105.877 22.9766 103.987 22.9766C103.138 22.9766 102.37 22.8988 101.681 22.7431C101.008 22.5875 100.424 22.3539 99.9274 22.0426C99.447 21.7312 99.0707 21.3342 98.7985 20.8516C98.5422 20.369 98.4141 19.8086 98.4141 19.1703C98.4141 18.0962 98.7424 17.2711 99.399 16.6951C100.056 16.119 101.072 15.761 102.45 15.6209L105.596 15.294V15.1305C105.596 14.679 105.388 14.3599 104.972 14.1731C104.571 13.9707 103.987 13.8695 103.218 13.8695C102.61 13.8695 102.017 13.9318 101.441 14.0563C100.864 14.1809 100.344 14.3365 99.8794 14.5234C99.6712 14.3832 99.495 14.1731 99.3509 13.8929C99.2068 13.5971 99.1347 13.2935 99.1347 12.9821C99.1347 12.5774 99.2308 12.2582 99.423 12.0247C99.6312 11.7756 99.9434 11.5655 100.36 11.3942C100.824 11.223 101.369 11.0984 101.993 11.0206C102.634 10.9428 103.234 10.9038 103.795 10.9038Z" fill="#25334E"/>
<path d="M119.455 15.4107C119.455 14.9281 119.311 14.5778 119.022 14.3599C118.75 14.1264 118.374 14.0096 117.893 14.0096C117.573 14.0096 117.253 14.0485 116.933 14.1264C116.628 14.2042 116.364 14.321 116.14 14.4766V22.5797C115.98 22.6264 115.724 22.6731 115.371 22.7198C115.035 22.7665 114.683 22.7898 114.314 22.7898C113.962 22.7898 113.642 22.7665 113.354 22.7198C113.081 22.6731 112.849 22.5797 112.657 22.4396C112.465 22.2995 112.313 22.1126 112.201 21.8791C112.105 21.63 112.056 21.3109 112.056 20.9217V13.9162C112.056 13.4959 112.145 13.1534 112.321 12.8887C112.513 12.6241 112.769 12.3828 113.089 12.1648C113.634 11.7912 114.314 11.4876 115.131 11.2541C115.964 11.0206 116.885 10.9038 117.893 10.9038C119.703 10.9038 121.096 11.293 122.073 12.0714C123.05 12.8342 123.538 13.9006 123.538 15.2706V22.5797C123.378 22.6264 123.122 22.6731 122.77 22.7198C122.433 22.7665 122.081 22.7898 121.713 22.7898C121.36 22.7898 121.04 22.7665 120.752 22.7198C120.48 22.6731 120.247 22.5797 120.055 22.4396C119.863 22.2995 119.711 22.1126 119.599 21.8791C119.503 21.63 119.455 21.3109 119.455 20.9217V15.4107Z" fill="#25334E"/>
<path d="M125.34 20.7115C125.34 20.0577 125.548 19.5128 125.965 19.0769C126.381 18.641 126.949 18.4231 127.67 18.4231C128.391 18.4231 128.959 18.641 129.375 19.0769C129.792 19.5128 130 20.0577 130 20.7115C130 21.3654 129.792 21.9103 129.375 22.3462C128.959 22.7821 128.391 23 127.67 23C126.949 23 126.381 22.7821 125.965 22.3462C125.548 21.9103 125.34 21.3654 125.34 20.7115Z" fill="#25334E"/>
<path d="M0 17C0 12.2521 0 9.87811 0.667788 7.96968C1.86388 4.55144 4.55144 1.86388 7.96968 0.667788C9.87811 0 12.2521 0 17 0C21.7479 0 24.1219 0 26.0303 0.667788C29.4486 1.86388 32.1361 4.55144 33.3322 7.96968C34 9.87811 34 12.2521 34 17C34 21.7479 34 24.1219 33.3322 26.0303C32.1361 29.4486 29.4486 32.1361 26.0303 33.3322C24.1219 34 21.7479 34 17 34C12.2521 34 9.87811 34 7.96968 33.3322C4.55144 32.1361 1.86388 29.4486 0.667788 26.0303C0 24.1219 0 21.7479 0 17Z" fill="#FF7D56"/>
<path d="M24.7239 17.3106H21.3041C22.5715 17.3106 23.5803 16.3131 23.5803 15.1079V10.1693C23.5803 8.96396 22.5715 8 21.3041 8H16.1114C14.8441 8 13.7906 8.96389 13.7906 10.1693V15.1078C13.7906 15.5553 13.9441 15.9717 14.1877 16.3185L14.0956 16.2256C13.6629 15.8141 13.0884 15.5874 12.4731 15.5874C11.8576 15.5874 11.2819 15.8141 10.8491 16.2256L7.67196 19.2479C6.77579 20.1002 6.77613 21.4871 7.6723 22.3394L10.8503 25.3618C11.2831 25.7733 11.8604 26 12.4757 26C13.0911 26 13.6684 25.7733 14.1011 25.3618L17.2679 22.3394C17.5968 22.0267 17.8137 21.6419 17.8808 21.2378V23.7807C17.8808 24.9859 18.9343 25.9834 20.2016 25.9834H24.7238C25.9912 25.9834 27 24.9859 27 23.7807V19.4799C27.0001 18.2745 25.9912 17.3106 24.7239 17.3106ZM18.9956 9.81823C19.7716 9.81823 20.5032 10.1036 21.0558 10.6219C21.2667 10.8197 21.2691 11.1426 21.0611 11.3433C20.8529 11.5439 20.5133 11.5462 20.3024 11.3484C19.9519 11.0197 19.4878 10.8386 18.9956 10.8386C17.9693 10.8386 17.1344 11.6326 17.1344 12.6086C17.1344 13.5846 17.9693 14.3786 18.9956 14.3786C19.5394 14.3786 20.0546 14.1532 20.409 13.7601C20.6018 13.5463 20.9405 13.5215 21.1653 13.705C21.3902 13.8883 21.4163 14.2104 21.2234 14.4242C20.665 15.0438 19.853 15.399 18.9955 15.399C17.3777 15.399 16.0615 14.1472 16.0615 12.6086C16.0616 11.07 17.3778 9.81823 18.9956 9.81823ZM15.9022 20.9704C15.8057 21.2367 15.5005 21.3782 15.2203 21.2865L14.4294 21.0274L12.7308 22.6428L12.9963 23.4105C13.0889 23.6782 12.9359 23.9666 12.6544 24.0546C12.5987 24.072 12.5422 24.0803 12.4867 24.0803C12.2612 24.0803 12.0514 23.9441 11.9771 23.7294L10.5266 19.5356C10.4629 19.3515 10.5144 19.1489 10.6595 19.0129C10.8045 18.8767 11.0182 18.8307 11.2108 18.8938L15.5697 20.3218C15.8499 20.4136 15.9987 20.704 15.9022 20.9704ZM17.8808 19.4798V20.3497C17.8137 19.9458 17.5968 19.5608 17.2679 19.248L14.8327 16.9351C15.1974 17.1668 15.6409 17.3106 16.1114 17.3106H20.2017C18.9343 17.3106 17.8808 18.2745 17.8808 19.4798ZM22.8883 24.134H20.9205C20.6243 24.134 20.3618 23.8889 20.3618 23.6071V19.6534C20.3618 19.3716 20.6243 19.1599 20.9205 19.1599H22.3317C23.2044 19.1599 23.9144 19.8359 23.9144 20.6771C23.9144 20.9026 23.8614 21.1167 23.7627 21.3159C24.1893 21.5903 24.4711 22.0657 24.4711 22.5973C24.471 23.4411 23.761 24.134 22.8883 24.134Z" fill="white"/>
</svg>
