<svg width="80" height="80" viewBox="0 0 80 80" fill="none" xmlns="http://www.w3.org/2000/svg">
<circle cx="40" cy="40" r="40" fill="#6ED2EF"/>
<path d="M49.1997 37.0997C50.1991 38.7631 50.7265 40.6607 50.7265 42.6099V43.7119H57.9999V37.0996H49.1997V37.0997Z" fill="white"/>
<path d="M22 37.0996V43.7119H29.2735V42.6099C29.2735 40.6607 29.8008 38.7631 30.8002 37.0997H22V37.0996Z" fill="white"/>
<path d="M43.6701 34.919C45.549 33.7086 46.7959 31.5981 46.7959 29.2017C46.7959 25.4544 43.7473 22.4058 40 22.4058C36.2527 22.4058 33.2041 25.4544 33.2041 29.2017C33.2041 31.5981 34.4509 33.7086 36.3299 34.919C33.4626 36.2929 31.4775 39.2238 31.4775 42.6098V43.7119H48.5224V42.6098C48.5224 39.2238 46.5374 36.2929 43.6701 34.919Z" fill="white"/>
<path d="M57.9065 49.9781L53.72 48.9283L51.4279 45.271L49.1358 48.9283L45.714 49.7863L42.2922 48.9283L40 45.271L37.7079 48.9283L34.2861 49.7863L30.8643 48.9283L28.5722 45.271L26.2801 48.9283L22.0936 49.9781L24.8635 53.2881L24.5682 57.5941L28.5722 55.9826L32.5762 57.5941L32.2809 53.2881L34.2861 50.8918L36.2914 53.2881L35.996 57.5941L40 55.9826L44.0041 57.5941L43.7087 53.2881L45.714 50.8918L47.7192 53.2881L47.4239 57.5941L51.4279 55.9826L55.4319 57.5941L55.1366 53.2881L57.9065 49.9781Z" fill="white"/>
</svg>
