<svg width="80" height="80" viewBox="0 0 80 80" fill="none" xmlns="http://www.w3.org/2000/svg">
<circle cx="40" cy="40" r="40" fill="#FDCF3F"/>
<path d="M25.1641 34.7253H23.0547C22.4717 34.7253 22 35.1971 22 35.78C22 36.363 22.4717 36.8347 23.0547 36.8347H25.1641C25.747 36.8347 26.2188 36.363 26.2188 35.78C26.2188 35.1971 25.747 34.7253 25.1641 34.7253Z" fill="white"/>
<path d="M25.671 29.4519L24.1796 27.9606C23.7677 27.5486 23.1002 27.5486 22.6882 27.9606C22.2763 28.3725 22.2763 29.04 22.6882 29.452L24.1796 30.9433C24.5917 31.3553 25.259 31.3553 25.671 30.9433C26.083 30.5313 26.083 29.8639 25.671 29.4519Z" fill="white"/>
<path d="M25.671 40.6171C25.2591 40.2051 24.5916 40.2051 24.1796 40.6171L22.6882 42.1085C22.2763 42.5205 22.2763 43.1879 22.6882 43.5999C23.1003 44.0119 23.7676 44.0119 24.1796 43.5999L25.671 42.1085C26.083 41.6965 26.083 41.0291 25.671 40.6171Z" fill="white"/>
<path d="M56.9453 34.7253H54.8359C54.253 34.7253 53.7812 35.1971 53.7812 35.78C53.7812 36.363 54.253 36.8347 54.8359 36.8347H56.9453C57.5283 36.8347 58 36.363 58 35.78C58 35.1971 57.5283 34.7253 56.9453 34.7253Z" fill="white"/>
<path d="M57.3117 27.9608C56.8997 27.5489 56.2322 27.5489 55.8203 27.9608L54.3289 29.4522C53.9169 29.8642 53.9169 30.5317 54.3289 30.9436C54.7409 31.3557 55.4082 31.3557 55.8203 30.9436L57.3117 29.4522C57.7236 29.0403 57.7236 28.3728 57.3117 27.9608Z" fill="white"/>
<path d="M57.3117 42.1082L55.8203 40.6168C55.4083 40.2049 54.7408 40.2049 54.3289 40.6168C53.9169 41.0288 53.9169 41.6963 54.3289 42.1082L55.8203 43.5996C56.2323 44.0116 56.8996 44.0116 57.3117 43.5996C57.7236 43.1876 57.7236 42.5201 57.3117 42.1082Z" fill="white"/>
<path d="M47.9771 24.8293C45.0025 22.4109 41.1001 21.4799 37.2819 22.2832C32.5214 23.2771 28.6446 27.2119 27.6353 31.9703C26.7773 36.0191 27.8361 40.0834 30.5388 43.1218C31.6314 44.3514 32.298 45.8354 32.5166 47.3818H35.7813V37.8896C35.7813 37.4812 38.8739 31.455 39.0566 31.0898C39.415 30.375 40.585 30.375 40.9435 31.0898C41.1348 31.4724 44.2188 37.5016 44.2188 37.8896V47.3818H47.4871C47.7132 45.8428 48.3993 44.3351 49.5231 43.0529C51.5439 40.7488 52.6563 37.7907 52.6563 34.7255C52.6563 30.8971 50.9506 27.2456 47.9771 24.8293Z" fill="white"/>
<path d="M40 39.9062C39.2869 39.9062 38.5766 39.782 37.8906 39.5552V47.3818H42.1094V39.5552C41.4234 39.782 40.7131 39.9062 40 39.9062Z" fill="white"/>
<path d="M32.6172 49.4912V50.5459C32.6172 52.2906 34.0365 53.71 35.7812 53.71H44.2188C45.9635 53.71 47.3828 52.2906 47.3828 50.5459V49.4912H32.6172Z" fill="white"/>
<path d="M40.0001 33.9202L38.2571 37.4061C39.3835 37.8676 40.6166 37.8676 41.743 37.4061L40.0001 33.9202Z" fill="white"/>
<path d="M34.9208 55.8193C35.3576 57.0443 36.5174 57.999 37.8906 57.999H42.1093C43.4825 57.999 44.6423 57.0443 45.0791 55.8193H34.9208Z" fill="white"/>
</svg>
