<svg width="80" height="80" viewBox="0 0 80 80" fill="none" xmlns="http://www.w3.org/2000/svg">
<circle cx="40" cy="40" r="40" fill="#B2D93A"/>
<g clip-path="url(#clip0_3:730)">
<path d="M57.5095 37.5726C57.1933 37.894 56.8235 38.1576 56.4166 38.3518C56.095 38.5023 55.7122 38.3636 55.5616 38.0419C55.4111 37.7203 55.5498 37.3375 55.8715 37.1869C56.3575 36.9601 56.7616 36.5888 57.0286 36.1236C57.633 35.063 57.4083 33.7236 56.4909 32.9182C55.5735 32.1129 54.2163 32.0635 53.2429 32.8001C53.0591 32.9379 52.8158 32.9672 52.6046 32.877C52.3934 32.7867 52.2464 32.5907 52.2189 32.3627C52.1914 32.1347 52.2877 31.9093 52.4714 31.7715C52.9344 31.4253 53.4698 31.1885 54.0374 31.0791C53.4345 27.6996 50.5043 25.2326 47.0714 25.2144C47.0528 25.2144 47.0322 25.2144 47.0136 25.2144C47.051 25.4266 47.0703 25.6417 47.0714 25.8572C47.0851 26.2123 46.8084 26.5112 46.4533 26.5248C46.0983 26.5385 45.7994 26.2618 45.7857 25.9067C45.7888 24.9197 45.2481 24.0111 44.3791 23.5429C43.5776 23.1478 42.629 23.1936 41.8693 23.6642C41.1096 24.1347 40.6461 24.9636 40.6429 25.8572C40.6429 26.2123 40.355 26.5001 40 26.5001C39.645 26.5001 39.3571 26.2123 39.3571 25.8572C39.3569 25.3319 39.4648 24.8122 39.6741 24.3304C38.7419 23.6509 37.6179 23.2851 36.4643 23.2858C34.535 23.2925 32.7497 24.3075 31.7573 25.962C31.5005 26.3978 31.3058 26.8674 31.1787 27.357C31.1206 27.5793 30.9483 27.7538 30.7267 27.8146C30.5051 27.8754 30.2679 27.8134 30.1044 27.652C29.9409 27.4905 29.876 27.254 29.9341 27.0317C30.0312 26.6733 30.1576 26.3235 30.3121 25.9858C30.0128 25.9023 29.7036 25.8591 29.3929 25.8572C27.5659 25.8598 26.0411 27.2523 25.8732 29.0715C27.0845 29.0722 28.2235 29.6476 28.9429 30.6221C29.1559 30.9061 29.0983 31.309 28.8143 31.5221C28.5303 31.7351 28.1273 31.6775 27.9143 31.3935C27.4331 30.7398 26.6689 30.3548 25.8571 30.3572C24.7019 30.358 23.6889 31.1291 23.3806 32.2425C23.0723 33.3558 23.5444 34.5382 24.5348 35.133C24.8392 35.3157 24.938 35.7106 24.7553 36.015C24.5726 36.3194 24.1777 36.4182 23.8733 36.2355C23.4497 35.9779 23.0799 35.6409 22.7843 35.2429C21.5305 37.6191 21.8053 40.5126 23.4839 42.6103C25.1624 44.708 27.9252 45.6105 30.5185 44.9083C30.4127 44.4584 30.3585 43.9979 30.3571 43.5358C30.3571 43.4271 30.3732 43.3204 30.379 43.2144H30.3571C28.5828 43.2122 27.145 41.7744 27.1429 40.0001C27.1421 39.6426 27.4283 39.3507 27.7857 39.3444C27.9549 39.3414 28.1181 39.4065 28.2389 39.5249C28.3598 39.6433 28.4281 39.8052 28.4286 39.9744V40.0001C28.4285 40.5489 28.6622 41.0718 29.0712 41.4377C29.4802 41.8036 30.0258 41.978 30.5712 41.9171L30.577 41.9126C30.7234 41.3788 30.9421 40.8675 31.2269 40.3929C31.4099 40.0886 31.805 39.9903 32.1092 40.1733C32.4135 40.3563 32.5118 40.7514 32.3288 41.0556C31.594 42.2762 31.4404 43.7605 31.9096 45.1056V45.1095C32.4707 46.7416 33.862 47.9488 35.5569 48.2744C37.2517 48.5999 38.9912 47.9939 40.117 46.6858C40.304 46.495 40.5825 46.4259 40.837 46.5071C41.9834 46.9607 43.2181 47.1468 44.4473 47.0509C45.0813 47.0085 45.7084 46.8934 46.3161 46.7076C46.6555 46.6034 47.0151 46.7941 47.1193 47.1335C47.2235 47.473 47.0328 47.8326 46.6934 47.9368C45.9964 48.1499 45.2773 48.2827 44.5501 48.3328C44.5392 48.3328 44.5264 48.3328 44.5154 48.3328C44.6086 50.1399 45.2451 51.1434 48.5603 52.2484C50.5318 52.7906 52.0869 54.3071 52.6784 56.2644C52.7604 56.5343 53.0109 56.7177 53.293 56.7144H54.0644C54.2467 56.7153 54.4207 56.6388 54.5433 56.5039C54.6659 56.3691 54.7255 56.1885 54.7073 56.0072C54.5356 54.3126 54.013 51.4584 52.4354 49.7998C51.9745 49.9633 51.4999 50.0853 51.0173 50.1643C50.9833 50.1699 50.9489 50.1727 50.9144 50.1726C50.5784 50.1735 50.2984 49.9154 50.2719 49.5804C50.2455 49.2454 50.4815 48.9465 50.8135 48.8946C53.0413 48.5314 54.9584 47.1185 55.9647 45.0979C54.2265 46.0056 52.1554 46.0111 50.4124 45.1127C49.926 44.8685 49.4762 44.5576 49.0759 44.1889C47.5007 44.9356 45.6177 44.2824 44.8433 42.7206C44.6835 42.4032 44.8113 42.0164 45.1287 41.8566C45.4461 41.6969 45.8329 41.8247 45.9927 42.1421C46.4688 43.0952 47.6274 43.4819 48.5805 43.0057C49.5336 42.5296 49.9203 41.371 49.4442 40.4179C49.3409 40.2126 49.3549 39.9677 49.481 39.7756C49.6072 39.5834 49.8263 39.4731 50.0558 39.4863C50.2852 39.4994 50.4903 39.634 50.5936 39.8394C51.1773 41.005 50.9974 42.4079 50.1385 43.3886C50.4017 43.6111 50.6891 43.8033 50.9954 43.9614C51.6689 44.3149 52.418 44.4997 53.1786 44.5001C54.5376 44.4959 55.8324 43.9212 56.7471 42.9161L56.7619 42.9006C57.1071 42.5429 57.3861 42.1267 57.586 41.6715C58.1649 40.3605 58.1369 38.8611 57.5095 37.5726Z" fill="white"/>
</g>
<defs>
<clipPath id="clip0_3:730">
<rect width="36" height="36" fill="white" transform="translate(22 22)"/>
</clipPath>
</defs>
</svg>
