<svg width="80" height="80" viewBox="0 0 80 80" fill="none" xmlns="http://www.w3.org/2000/svg">
<circle cx="40" cy="40" r="40" fill="#FF7D56"/>
<path d="M50.7764 50.7111H50.645C50.6387 50.7111 50.6327 50.7095 50.6264 50.7095C50.6162 50.7097 50.6062 50.7111 50.5959 50.7111H47.8691V52.8568H50.7766C51.3292 52.8568 51.7963 52.3654 51.7963 51.7839C51.796 51.2022 51.3291 50.7111 50.7764 50.7111Z" fill="white"/>
<path d="M50.6827 47.7504C50.6827 47.1744 50.2158 46.688 49.663 46.688H47.8689V48.5655H50.2968C50.4803 48.4314 50.6827 48.1333 50.6827 47.7504Z" fill="white"/>
<path d="M54.4475 40.6531H47.6081C50.1429 40.6531 52.1605 38.5556 52.1605 36.021V25.6355C52.1605 23.1006 50.1429 21.0735 47.6081 21.0735H37.2228C34.688 21.0735 32.5811 23.1005 32.5811 25.6355V36.0208C32.5811 36.962 32.8881 37.8376 33.3753 38.567L33.1912 38.3716C32.3256 37.5062 31.1767 37.0294 29.9461 37.0294C28.7152 37.0294 27.5637 37.5062 26.6981 38.3716L20.3439 44.7273C18.5516 46.5196 18.5523 49.4361 20.3446 51.2286L26.7005 57.5844C27.5661 58.4498 28.7207 58.9266 29.9514 58.9266C31.1821 58.9266 32.3366 58.4498 33.2022 57.5844L39.5357 51.2286C40.1935 50.571 40.6273 49.7616 40.7615 48.9119V54.2594C40.7615 56.794 42.8684 58.8916 45.4031 58.8916H54.4474C56.9821 58.8916 58.9998 56.794 58.9998 54.2594V45.2152C58.9999 42.6801 56.9823 40.6531 54.4475 40.6531ZM42.991 24.8971C44.543 24.8971 46.0062 25.4972 47.1114 26.5871C47.5331 27.0031 47.5381 27.6822 47.122 28.1043C46.7057 28.5262 46.0265 28.531 45.6047 28.115C44.9037 27.4238 43.9754 27.043 42.991 27.043C40.9385 27.043 39.2687 28.7127 39.2687 30.7652C39.2687 32.8177 40.9385 34.4875 42.991 34.4875C44.0787 34.4875 45.109 34.0134 45.8178 33.1868C46.2035 32.737 46.8809 32.6849 47.3305 33.0708C47.7803 33.4563 47.8323 34.1337 47.4466 34.5833C46.3298 35.8862 44.7058 36.6332 42.9908 36.6332C39.7553 36.6332 37.1229 34.0008 37.1229 30.7652C37.123 27.5295 39.7554 24.8971 42.991 24.8971ZM36.8042 48.3495C36.6113 48.9095 36.0008 49.2072 35.4405 49.0143L33.8587 48.4694L30.4616 51.8666L30.9926 53.4811C31.1778 54.0439 30.8717 54.6503 30.3087 54.8355C30.1974 54.8721 30.0843 54.8894 29.9733 54.8894C29.5224 54.8894 29.1028 54.6031 28.9542 54.1516L26.0531 45.3322C25.9258 44.9451 26.0287 44.5191 26.3189 44.233C26.609 43.9466 27.0363 43.8498 27.4216 43.9826L36.1392 46.9856C36.6996 47.1787 36.9974 47.7893 36.8042 48.3495ZM40.7615 45.215V47.0444C40.6273 46.1949 40.1934 45.3853 39.5356 44.7274L34.6654 39.8636C35.3948 40.3509 36.2816 40.6531 37.2228 40.6531H45.4033C42.8684 40.6531 40.7615 42.6801 40.7615 45.215ZM50.7765 55.0025H46.8409C46.2484 55.0025 45.7234 54.487 45.7234 53.8945V45.5799C45.7234 44.9874 46.2484 44.5422 46.8409 44.5422H49.6632C51.4086 44.5422 52.8286 45.9637 52.8286 47.7327C52.8286 48.2071 52.7227 48.6573 52.5252 49.0761C53.3784 49.6531 53.9419 50.653 53.9419 51.7709C53.9418 53.5453 52.5218 55.0025 50.7765 55.0025Z" fill="white"/>
<path d="M29.7104 49.583L31.6016 47.692L28.7671 46.7156L29.7104 49.583Z" fill="white"/>
</svg>
