<svg width="44" height="44" viewBox="0 0 44 44" fill="none" xmlns="http://www.w3.org/2000/svg">
<circle cx="22" cy="22" r="22" fill="#FF7D56"/>
<path d="M32.7825 12.8211C31.8249 13.4966 30.7646 14.0132 29.6425 14.3511C29.0402 13.6586 28.2398 13.1678 27.3495 12.945C26.4592 12.7223 25.522 12.7783 24.6646 13.1055C23.8071 13.4328 23.0709 14.0155 22.5555 14.7748C22.04 15.5341 21.7702 16.4334 21.7825 17.3511V18.3511C20.0251 18.3967 18.2837 18.0069 16.7135 17.2165C15.1432 16.4262 13.7928 15.2597 12.7825 13.8211C12.7825 13.8211 8.78247 22.8211 17.7825 26.8211C15.723 28.2191 13.2696 28.92 10.7825 28.8211C19.7825 33.8211 30.7825 28.8211 30.7825 17.3211C30.7815 17.0425 30.7548 16.7647 30.7025 16.4911C31.7231 15.4846 32.4433 14.2138 32.7825 12.8211Z" fill="white"/>
</svg>
